<?xml version="1.0" encoding="utf-8"?>
<!-- Generator: Adobe Illustrator 16.0.0, SVG Export Plug-In . SVG Version: 6.00 Build 0)  -->
<!DOCTYPE svg PUBLIC "-//W3C//DTD SVG 1.1//EN" "http://www.w3.org/Graphics/SVG/1.1/DTD/svg11.dtd">
<svg version="1.1" id="Layer_1" xmlns="http://www.w3.org/2000/svg" xmlns:xlink="http://www.w3.org/1999/xlink" x="0px" y="0px"
	 width="132px" height="40px" viewBox="0 0 132 40" enable-background="new 0 0 132 40" xml:space="preserve">
<g>
	<g>
		<path fill="#FFFFFF" d="M7.316,15.641l-2.432-1.477c-1.527-0.931-2.611-1.848-3.258-2.75C0.983,10.511,0.658,9.475,0.658,8.3
			c0-1.762,0.613-3.188,1.833-4.29c1.223-1.096,2.81-1.646,4.761-1.646c1.867,0,3.581,0.524,5.139,1.573V7.57
			c-1.613-1.554-3.346-2.327-5.204-2.327c-1.043,0-1.903,0.242-2.575,0.725C3.939,6.452,3.604,7.072,3.604,7.826
			c0,0.67,0.247,1.297,0.742,1.881c0.495,0.586,1.292,1.199,2.389,1.843l2.446,1.446c2.727,1.63,4.088,3.703,4.088,6.218
			c0,1.792-0.599,3.248-1.8,4.37c-1.202,1.12-2.76,1.683-4.682,1.683c-2.207,0-4.22-0.68-6.034-2.039v-4.064
			c1.73,2.188,3.731,3.284,6.003,3.284c1.003,0,1.838-0.28,2.503-0.838c0.668-0.557,1-1.254,1-2.096
			C10.26,18.153,9.279,16.861,7.316,15.641z"/>
		<path fill="#FFFFFF" d="M16.199,32.512V10.286h5.098c2.611,0,4.646,0.649,6.099,1.953c1.455,1.3,2.183,3.119,2.183,5.455
			c0,2.209-0.685,4.023-2.054,5.441c-1.369,1.419-3.114,2.132-5.232,2.132c-0.938,0-1.977-0.21-3.116-0.627v7.872H16.199z
			 M21.237,13.005h-2.061v9.057c0.895,0.459,1.829,0.688,2.81,0.688c1.364,0,2.478-0.474,3.344-1.424
			c0.869-0.948,1.302-2.171,1.302-3.664c0-0.96-0.206-1.807-0.613-2.544c-0.412-0.737-0.969-1.271-1.678-1.608
			S22.596,13.005,21.237,13.005z"/>
		<path fill="#FFFFFF" d="M42.029,16.157v6.259c0,0.501,0.17,0.749,0.512,0.749c0.352,0,0.9-0.258,1.647-0.782v1.778
			c-0.661,0.426-1.192,0.718-1.592,0.871c-0.397,0.156-0.818,0.234-1.256,0.234c-1.247,0-1.982-0.493-2.209-1.474
			c-1.237,0.959-2.554,1.44-3.952,1.44c-1.024,0-1.876-0.34-2.561-1.018c-0.682-0.677-1.022-1.529-1.022-2.554
			c0-0.926,0.333-1.756,0.998-2.489c0.668-0.728,1.616-1.307,2.841-1.733l3.729-1.283v-0.783c0-1.771-0.886-2.659-2.657-2.659
			c-1.589,0-3.136,0.824-4.641,2.465v-3.183c1.13-1.333,2.76-2.001,4.88-2.001c1.589,0,2.865,0.417,3.827,1.25
			c0.318,0.266,0.605,0.62,0.862,1.063c0.258,0.445,0.421,0.886,0.488,1.329C41.993,14.08,42.029,14.92,42.029,16.157z
			 M39.164,22.096v-4.371l-1.953,0.754c-0.991,0.395-1.695,0.792-2.104,1.192s-0.615,0.899-0.615,1.496
			c0,0.608,0.194,1.105,0.582,1.488c0.393,0.386,0.895,0.575,1.513,0.575C37.515,23.23,38.374,22.852,39.164,22.096z"/>
		<path fill="#FFFFFF" d="M49.887,10.286v3.375l0.161-0.256c1.41-2.271,2.817-3.408,4.224-3.408c1.099,0,2.248,0.555,3.439,1.664
			l-1.534,2.561c-1.015-0.96-1.953-1.441-2.817-1.441c-0.938,0-1.752,0.45-2.441,1.345c-0.687,0.897-1.032,1.958-1.032,3.186v7.698
			h-2.93V10.286H49.887z"/>
		<path fill="#FFFFFF" d="M58.338,12.622l5.471-5.378v3.042h4.658v2.624H63.81v7.207c0,1.683,0.699,2.522,2.097,2.522
			c1.046,0,2.149-0.347,3.313-1.039v2.722c-1.117,0.627-2.341,0.945-3.664,0.945c-1.336,0-2.444-0.393-3.327-1.173
			c-0.278-0.231-0.507-0.495-0.689-0.789c-0.182-0.295-0.335-0.678-0.457-1.154c-0.122-0.474-0.184-1.376-0.184-2.711V12.91h-2.559
			V12.622z"/>
		<path fill="#FFFFFF" d="M101.924,21.568v2.88c-1.463,0.546-2.892,0.818-4.292,0.818c-2.303,0-4.139-0.685-5.512-2.051
			c-1.372-1.364-2.059-3.195-2.059-5.491c0-2.312,0.67-4.181,2.003-5.598c1.333-1.422,3.09-2.13,5.266-2.13
			c0.757,0,1.437,0.072,2.039,0.215c0.604,0.144,1.351,0.414,2.233,0.809v3.104c-1.472-0.936-2.839-1.41-4.095-1.41
			c-1.316,0-2.392,0.464-3.234,1.386c-0.842,0.924-1.264,2.099-1.264,3.528c0,1.505,0.455,2.703,1.367,3.587
			c0.912,0.886,2.142,1.326,3.688,1.326C99.186,22.543,100.471,22.218,101.924,21.568z"/>
		<path fill="#FFFFFF" d="M114.613,25.009V23.12c-0.617,0.678-1.325,1.204-2.12,1.58c-0.792,0.375-1.587,0.566-2.374,0.566
			c-0.932,0-1.786-0.234-2.568-0.698c-0.785-0.465-1.379-1.094-1.778-1.889c-0.4-0.795-0.599-2.115-0.599-3.959v-8.435h2.91v8.389
			c0,1.546,0.221,2.625,0.666,3.239c0.442,0.612,1.218,0.919,2.326,0.919c1.388,0,2.565-0.68,3.537-2.034V10.286h2.913v14.723
			H114.613z"/>
		<path fill="#FFFFFF" d="M120.903,23.95v-3.133c0.821,0.575,1.664,1.042,2.521,1.4c0.859,0.354,1.582,0.533,2.169,0.533
			c0.61,0,1.13-0.147,1.57-0.447c0.436-0.299,0.655-0.658,0.655-1.072c0-0.429-0.141-0.782-0.426-1.065
			c-0.282-0.282-0.893-0.689-1.831-1.223c-1.879-1.046-3.106-1.938-3.688-2.683c-0.584-0.74-0.874-1.546-0.874-2.422
			c0-1.129,0.44-2.053,1.321-2.769s2.016-1.072,3.401-1.072c1.441,0,2.918,0.404,4.433,1.216v2.882
			c-1.728-1.046-3.14-1.568-4.241-1.568c-0.564,0-1.021,0.12-1.366,0.359c-0.35,0.242-0.522,0.558-0.522,0.952
			c0,0.342,0.158,0.668,0.47,0.979c0.315,0.312,0.866,0.682,1.658,1.12l1.039,0.591c2.456,1.386,3.682,2.922,3.682,4.607
			c0,1.206-0.472,2.197-1.415,2.968c-0.943,0.775-2.156,1.163-3.641,1.163c-0.876,0-1.653-0.096-2.338-0.282
			C122.797,24.798,121.938,24.453,120.903,23.95z"/>
	</g>
	<text transform="matrix(1 0 0 1 81.4961 35.3369)" fill="#FFFFFF" font-family="'Verdana'" font-size="10.3185">TRADERS</text>
	<g>
		<path fill-rule="evenodd" clip-rule="evenodd" fill="#FFFFFF" d="M72.67,19.089c0.144-0.627,0.307-1.247,0.424-1.879
			c0.148-0.816,0.57-1.479,1.067-2.123c1.219-1.58,4.012-2.374,6.199-1.08c1.582,0.931,2.346,2.317,2.468,4.105
			c0.017,0.261,0.024,0.529-0.007,0.785c-0.041,0.287-0.125,0.567-0.208,0.842c-0.156,0.512-0.348,1.018-0.484,1.532
			c-0.093,0.361-0.009,0.72,0.13,1.064c0.354,0.891,0.886,1.669,1.549,2.358c0.045,0.05,0.109,0.078,0.165,0.114
			c-0.015,0.024-0.026,0.051-0.043,0.074c-0.333-0.026-0.666-0.045-0.998-0.086c-0.343-0.041-0.685-0.107-1.029-0.153
			c-0.95-0.119-1.664-0.675-2.344-1.292c-0.048-0.046-0.084-0.11-0.132-0.178c-0.655,0.594-1.386,0.977-2.173,1.262
			c-1.14,0.414-2.319,0.617-3.523,0.687c-0.553,0.034-1.105,0.005-1.711,0.005c0.505-2.106,1.017-4.229,1.52-6.326
			c0.323,0.107,0.596,0.232,0.883,0.287c0.559,0.105,1.138-0.199,1.403-0.687c0.203-0.378,0.119-0.715-0.259-0.921
			c-0.569-0.311-1.142-0.268-1.692,0.055c-0.263,0.158-0.363,0.421-0.393,0.723c-0.007,0.096-0.055,0.206-0.119,0.273
			c-0.208,0.204-0.431,0.39-0.648,0.584C72.699,19.106,72.688,19.099,72.67,19.089z"/>
		<path fill-rule="evenodd" clip-rule="evenodd" fill="#FFFFFF" d="M74.745,12.766c-1.003-1.44-2.415-1.948-4.128-1.886
			c0.043-0.053,0.064-0.089,0.091-0.115c1.513-1.354,3.214-2.35,5.225-2.762c0.366-0.074,0.749-0.117,1.123-0.115
			c1.577,0.002,3.159,0.063,4.629,0.694c3.588,1.539,5.845,4.182,6.513,8.085c0.272,1.584,0.035,3.109-0.536,4.601
			c-0.211,0.558-0.405,1.132-0.532,1.716c-0.152,0.73,0.067,1.369,0.654,1.862c0.026,0.021,0.05,0.053,0.103,0.105
			c-0.778,0.071-1.441-0.117-2.011-0.589c-0.579-0.483-0.895-1.12-0.962-1.859c-0.084-0.922-0.12-1.843-0.191-2.767
			c-0.024-0.29-0.101-0.575-0.158-0.862c-0.015-0.082-0.041-0.187-0.098-0.228c-0.331-0.234-0.228-0.589-0.269-0.9
			c-0.335-2.647-1.719-4.471-4.229-5.426c-1.716-0.654-3.367-0.443-4.983,0.337c-0.069,0.033-0.139,0.067-0.208,0.101
			C74.77,12.761,74.763,12.761,74.745,12.766z"/>
		<path fill-rule="evenodd" clip-rule="evenodd" fill="#FFFFFF" d="M75.339,13.85c-0.158-0.316-0.307-0.61-0.469-0.94
			c1.919-1.02,3.854-1.077,5.804-0.137c2.092,1.013,3.543,3.354,3.385,5.474c-0.335,0-0.675,0-1.027,0
			c-0.218-1.857-0.876-3.404-2.602-4.378C78.719,12.905,77.06,13.053,75.339,13.85z"/>
	</g>
	<text transform="matrix(1 0 0 1 26.3926 35.3369)" fill="#FFFFFF" font-family="'MyriadPro-Regular'" font-size="3.6867">NASDAQ</text>
	<text transform="matrix(1 0 0 1 43.9824 35.3369)" fill="#FFFFFF" font-family="'MyriadPro-Regular'" font-size="3.6867">NYSE</text>
	<text transform="matrix(1 0 0 1 55.0078 35.3369)" fill="#FFFFFF" font-family="'MyriadPro-Regular'" font-size="3.6867">DOW JONES</text>
	<path fill="#FFFFFF" d="M42.352,34.115c0,0.262-0.21,0.47-0.471,0.47c-0.264,0-0.474-0.208-0.474-0.47
		c0-0.263,0.21-0.474,0.474-0.474C42.142,33.642,42.352,33.853,42.352,34.115z"/>
	<path fill="#FFFFFF" d="M53.872,34.115c0,0.262-0.213,0.47-0.474,0.47s-0.471-0.208-0.471-0.47c0-0.263,0.21-0.474,0.471-0.474
		S53.872,33.853,53.872,34.115z"/>
</g>
</svg>
